# xmcd
# 
# Track frame offsets:
#     150
#     22102
#     37120
#     57405
#     73210
#     96027
#     113520
#     136517
#     159877
#     180880
#     203357
#     247855
# 
# Disc length: 4440
# 
# Revision: 3
# Processed by: cddbd v1.5.2PL0 Copyright (c) Steve Scherf et al.
# Submitted via: BonkEnc v1.0.6
# 
DISCID=8e11560c
DTITLE=GOING UNDER GROUND - ハートビート
DYEAR=2003
DGENRE=JPop
TTITLE0=トワイライト
TTITLE1=リバーズエッジ
TTITLE2=ハートビート
TTITLE3=かいき
TTITLE4=さえないブルー
TTITLE5=月曜日雨のメロディー
TTITLE6=虹ヶ丘
TTITLE7=ビターズ
TTITLE8=ダイアリー
TTITLE9=銀河行き
TTITLE10=波
TTITLE11=CCCD Shit
EXTD=YEAR: 2003
EXTT0=
EXTT1=
EXTT2=
EXTT3=
EXTT4=
EXTT5=
EXTT6=
EXTT7=
EXTT8=
EXTT9=
EXTT10=
EXTT11=
PLAYORDER=
